<svg width="20" height="32" viewBox="0 0 20 32" fill="none" xmlns="http://www.w3.org/2000/svg">
<path d="M12.9984 6C14.6547 6 15.9984 4.65625 15.9984 3C15.9984 1.34375 14.6547 0 12.9984 0C11.3422 0 9.99844 1.34375 9.99844 3C9.99844 4.65625 11.3422 6 12.9984 6ZM18.9047 15.3188L17.4484 14.5813L16.8422 12.7437C15.9234 9.95625 13.3609 8.00625 10.4547 8C8.20469 7.99375 6.96094 8.63125 4.62344 9.575C3.27344 10.1187 2.16719 11.15 1.51719 12.4625L1.09844 13.3125C0.610938 14.3 1.00469 15.5 1.98594 15.9937C2.96094 16.4875 4.14844 16.0875 4.64219 15.1L5.06094 14.25C5.27969 13.8125 5.64219 13.4688 6.09219 13.2875L7.76719 12.6125L6.81719 16.4062C6.49219 17.7062 6.84219 19.0875 7.74844 20.0812L11.4922 24.1688C11.9422 24.6625 12.2609 25.2562 12.4234 25.9L13.5672 30.4813C13.8359 31.55 14.9234 32.2063 15.9922 31.9375C17.0609 31.6687 17.7172 30.5813 17.4484 29.5125L16.0609 23.95C15.8984 23.3063 15.5797 22.7063 15.1297 22.2188L12.2859 19.1125L13.3609 14.8188L13.7047 15.85C14.0359 16.8563 14.7484 17.6875 15.6859 18.1625L17.1422 18.9C18.1172 19.3937 19.3047 18.9938 19.7984 18.0063C20.2797 17.025 19.8859 15.8125 18.9047 15.3188ZM4.59844 24.1125C4.39844 24.6187 4.09844 25.075 3.71094 25.4562L0.585938 28.5875C-0.195312 29.3687 -0.195312 30.6375 0.585938 31.4188C1.36719 32.2 2.62969 32.2 3.41094 31.4188L7.12344 27.7062C7.50469 27.325 7.80469 26.8687 8.01094 26.3625L8.85469 24.25C5.39844 20.4813 6.43594 21.6375 5.89219 20.8937L4.59844 24.1125Z" fill="white"/>
</svg>
