<svg width="28" height="24" viewBox="0 0 28 24" fill="none" xmlns="http://www.w3.org/2000/svg">
<path d="M19.5752 1C23.2121 1.0001 25.9999 3.73513 26 7.19336C26 9.3195 25.019 11.3388 23.0713 13.6475C21.1137 15.9677 18.2941 18.451 14.7979 21.5225L14.7959 21.5234L13.5 22.666L12.2041 21.5234L12.2021 21.5225L9.70996 19.3223C7.35013 17.2194 5.39693 15.3877 3.92871 13.6475C1.98095 11.3388 1 9.3195 1 7.19336C1.00005 3.73514 3.78791 1.0001 7.4248 1C9.48309 1 11.4672 1.93361 12.752 3.38379L13.5 4.22852L14.248 3.38379C15.5328 1.93361 17.5169 1 19.5752 1Z" stroke="currentColor" stroke-width="2"/>
</svg>
