<svg width="24" height="24" viewBox="0 0 24 24" fill="none" xmlns="http://www.w3.org/2000/svg">
<path d="M11.999 0V0.000921624C13.5962 -0.00182832 15.1777 0.314796 16.6496 0.933605L16.6487 0.934526C18.0849 1.53576 19.3895 2.41102 20.4877 3.51323L20.8894 3.93533C21.6723 4.798 22.3259 5.76952 22.8283 6.82001L23.0665 7.35179L23.0674 7.35456C23.6891 8.84177 24.0053 10.4249 23.9999 12.0512V12.0548C23.9919 13.6694 23.671 15.2426 23.0397 16.7229V16.7238C22.431 18.1503 21.5594 19.431 20.4554 20.5255L20.4564 20.5264C19.3583 21.6183 18.0575 22.4857 16.6266 23.0802L16.6256 23.0811C15.1605 23.6891 13.6045 24 12.0037 24H11.9473C10.2439 23.9917 8.56342 23.6208 7.01698 22.9162H4.01261C2.39366 22.9162 1.08326 21.6038 1.08302 19.9909V16.9828C0.382065 15.4436 0.00740965 13.7568 0 12.0558L0.000923287 12.0548C-0.00858584 10.4503 0.302917 8.86017 0.917748 7.3776V7.37668C1.5116 5.94723 2.37838 4.64641 3.46971 3.54733C4.55782 2.44731 5.85033 1.56935 7.27458 0.962175C8.75639 0.328957 10.3289 0.00799726 11.9446 0H11.999ZM8.29297 11.9995C8.29279 11.5857 7.97882 11.2421 7.56911 11.2005L7.48601 11.1959C7.03594 11.1959 6.67833 11.5606 6.67814 11.9995L6.68183 12.0816C6.72272 12.4854 7.06418 12.8041 7.48601 12.8041V13.0834L7.37522 13.0778C6.82981 13.0224 6.40207 12.5604 6.40207 11.9995C6.40227 11.4015 6.88915 10.9166 7.48601 10.9166C8.08267 10.9169 8.56884 11.4017 8.56903 11.9995L8.56349 12.1111C8.50797 12.6569 8.04747 13.0831 7.48601 13.0834V12.8041C7.93569 12.8039 8.29297 12.4411 8.29297 11.9995ZM12.8069 11.9995L12.8023 11.9184C12.7642 11.5414 12.465 11.2391 12.0821 11.2005L11.999 11.1959C11.5493 11.1959 11.1914 11.558 11.1912 11.9995C11.1912 12.4412 11.5492 12.8041 11.999 12.8041V13.0834L11.8882 13.0778C11.3431 13.0222 10.916 12.5602 10.916 11.9995C10.9162 11.4016 11.4022 10.9167 11.999 10.9166C12.5959 10.9166 13.0819 11.4015 13.0821 11.9995C13.0821 12.5977 12.596 13.0834 11.999 13.0834V12.8041C12.4209 12.8041 12.7614 12.4854 12.8023 12.0816L12.8069 11.9995ZM17.3209 11.9995L17.3163 11.9184C17.2782 11.5415 16.9788 11.2393 16.5961 11.2005L16.513 11.1959C16.0632 11.1959 15.7053 11.558 15.7051 11.9995L15.7088 12.0816C15.7497 12.4854 16.0912 12.8041 16.513 12.8041V13.0834L16.4022 13.0778C15.8569 13.0224 15.43 12.5603 15.43 11.9995C15.4302 11.4015 15.9161 10.9166 16.513 10.9166C17.1097 10.9168 17.5958 11.4016 17.596 11.9995L17.5905 12.1111C17.5347 12.657 17.0724 13.0832 16.513 13.0834V12.8041C16.9347 12.804 17.2754 12.4853 17.3163 12.0816L17.3209 11.9995ZM2.97945 20.0969C3.02929 20.5854 3.41871 20.9736 3.90643 21.0232L4.01261 21.0287H7.44447C8.75658 21.6896 10.1964 22.0574 11.663 22.107L11.9566 22.1125H12.0037C13.187 22.1125 14.3373 21.9115 15.4337 21.5181L15.8999 21.3384C17.1039 20.8381 18.1984 20.1079 19.1222 19.1891C19.9375 18.3813 20.6003 17.4541 21.0971 16.4289L21.3002 15.9837C21.8316 14.7378 22.1023 13.4125 22.109 12.0447C22.113 10.8419 21.9095 9.67028 21.5071 8.55543L21.3224 8.08172C20.8784 7.02407 20.2576 6.05063 19.4878 5.20257L19.149 4.84682C18.2241 3.91797 17.1256 3.17893 15.9156 2.67271C14.6761 2.15163 13.344 1.88474 11.999 1.88749H11.9538C10.5858 1.89427 9.26284 2.16491 8.0169 2.69759C6.81726 3.20902 5.7293 3.94942 4.8131 4.87631L4.47702 5.23114C3.71521 6.07686 3.10199 7.04648 2.66461 8.09923C2.14568 9.35055 1.88238 10.6932 1.89089 12.0475C1.8977 13.6139 2.27293 15.1693 2.97391 16.5597V19.9909L2.97945 20.0969Z" fill="currentColor"/>
<path d="M11.347 11.1208C11.7647 10.8082 12.3568 10.8928 12.6701 11.3097L12.7624 11.4323C13.0757 11.8493 12.9909 12.4412 12.5732 12.7539C12.1555 13.0662 11.5633 12.9816 11.2501 12.565L11.1578 12.4415C10.8446 12.0245 10.9294 11.4335 11.347 11.1208Z" fill="currentColor"/>
<path d="M16.4203 10.9354C16.9407 10.8922 17.3972 11.2777 17.4405 11.7972L17.4719 12.1686C17.515 12.6877 17.1287 13.1435 16.6087 13.187C16.0884 13.2302 15.631 12.8445 15.5875 12.3253L15.557 11.9538C15.5137 11.4344 15.9 10.9787 16.4203 10.9354Z" fill="currentColor"/>
<path d="M7.10563 11.1699C7.27289 10.9783 7.56304 10.9523 7.76117 11.1146C7.77204 11.1235 7.78084 11.1344 7.79071 11.1441C7.85279 11.1381 7.91657 11.1431 7.97814 11.1625L8.06585 11.2012L8.12125 11.2344C8.13671 11.2452 8.15396 11.259 8.17203 11.275L8.22651 11.3303L8.24405 11.3524L8.25974 11.3763C8.28124 11.4098 8.2975 11.4433 8.3096 11.4722L8.33453 11.5404L8.34376 11.5717C8.35881 11.6333 8.36265 11.6836 8.365 11.7183C8.36727 11.7517 8.36786 11.7775 8.37238 11.827C8.37652 11.8723 8.3899 11.98 8.37885 12.1063C8.37442 12.1567 8.3684 12.2162 8.35761 12.2731C8.3491 12.3179 8.32845 12.4175 8.26898 12.5127C8.26687 12.5161 8.26457 12.5189 8.25882 12.5284C8.25394 12.5364 8.24686 12.5486 8.23851 12.5615C8.22204 12.5871 8.19516 12.6268 8.15818 12.6675C8.07959 12.7541 7.93762 12.8634 7.72885 12.8721C7.60953 12.8771 7.5186 12.8676 7.48141 12.8638C7.47447 12.8631 7.46739 12.8619 7.45741 12.8611C7.44854 12.8603 7.43481 12.8597 7.4214 12.8583C7.39921 12.856 7.34577 12.8501 7.28752 12.8325C7.16869 12.7966 7.00715 12.7181 6.88866 12.5901C6.90104 12.6035 6.91074 12.6124 6.89882 12.6021C6.89264 12.5968 6.86681 12.5745 6.84065 12.5477C6.77658 12.4821 6.70721 12.385 6.67446 12.2473C6.66764 12.2186 6.66343 12.1932 6.66061 12.1745C6.65816 12.1582 6.65598 12.1379 6.65507 12.1311C6.65266 12.1133 6.65155 12.1097 6.65138 12.109C6.64407 12.0819 6.6253 12.0164 6.61445 11.9496C6.60346 11.8819 6.5929 11.7715 6.6246 11.6482C6.63432 11.6104 6.64599 11.5655 6.65969 11.5256C6.66609 11.507 6.67845 11.4744 6.69662 11.439C6.70569 11.4213 6.72195 11.3908 6.7474 11.3579C6.7686 11.3305 6.82347 11.2651 6.91821 11.2187L6.99115 11.1902C7.02084 11.181 7.05553 11.1733 7.09455 11.1699C7.09755 11.1696 7.1014 11.1701 7.10563 11.1699Z" fill="currentColor"/>
</svg>
